# xmcd
#
# Track frame offsets:
#        150
#        6537
#        33015
#        61875
#        83240
#        104302
#        127647
#        149467
#        170740
#        192895
#        216102
#        239310
#        261110
#        280047
#
# Disc length: 3949 seconds
#
# Revision: 0
# Processed by: cddbd v1.5.1PL0 Copyright (c) Steve Scherf et al.
# Submitted via: ExactAudioCopy v0.95a4
#
DISCID=be0f6b0e
DTITLE=Mauro Picotto - Selected Works_In the Mix
DYEAR=2001
DGENRE=Trance
TTITLE0=Luna
TTITLE1=Baguette
TTITLE2=Like This Like That(Zaffarano Mix)
TTITLE3=Verdi(Megamind Mix)
TTITLE4=Prendy E Scappa
TTITLE5=Transponder(Decode Mix)
TTITLE6=Komodo(Saccoman Mix)
TTITLE7=Eclectic
TTITLE8=Kebab
TTITLE9=Sturm Und Drang(Picotto Mix)
TTITLE10=Iguana(Mas Mix)
TTITLE11=Wake up
TTITLE12=Distorsion
TTITLE13=Proximus medley with Adiemus
EXTD=
EXTT0=
EXTT1=
EXTT2=
EXTT3=
EXTT4=
EXTT5=
EXTT6=
EXTT7=
EXTT8=
EXTT9=
EXTT10=
EXTT11=
EXTT12=
EXTT13=
PLAYORDER=
